<svg width="100" height="40" viewBox="0 0 100 40" fill="none" xmlns="http://www.w3.org/2000/svg">
<circle cx="12" cy="20" r="2" fill="currentColor"/>
<circle cx="86" cy="20" r="2" fill="currentColor"/>
<path d="M46 21C46.5523 21 47 20.5523 47 20C47 19.4477 46.5523 19 46 19V20V21ZM54 19C53.4477 19 53 19.4477 53 20C53 20.5523 53.4477 21 54 21V20V19ZM13 20V21H46V20V19H13V20ZM54 20V21H87V20V19H54V20Z" fill="currentColor"/>
<path d="M46 11V29.5" stroke="currentColor" stroke-width="4" stroke-linecap="round"/>
<path d="M54 11V29.5" stroke="currentColor" stroke-width="4" stroke-linecap="round"/>
</svg>