<svg width="100" height="40" viewBox="0 0 100 40" fill="none" xmlns="http://www.w3.org/2000/svg">
<circle cx="12" cy="20" r="2" fill="currentColor"/>
<circle cx="87" cy="20" r="2" fill="currentColor"/>
<path d="M25 21C25.5523 21 26 20.5523 26 20C26 19.4477 25.5523 19 25 19V20V21ZM73 19C72.4477 19 72 19.4477 72 20C72 20.5523 72.4477 21 73 21V20V19ZM13 20V21H25V20V19H13V20ZM73 20V21H87V20V19H73V20Z" fill="currentColor"/>
<path d="M37 21C37 16.5817 34.3137 13 31 13C27.6863 13 25 16.5817 25 21" stroke="currentColor" stroke-width="4" stroke-linecap="round"/>
<path d="M49 21C49 16.5817 46.3137 13 43 13C39.6863 13 37 16.5817 37 21" stroke="currentColor" stroke-width="4" stroke-linecap="round"/>
<path d="M61 21C61 16.5817 58.3137 13 55 13C51.6863 13 49 16.5817 49 21" stroke="currentColor" stroke-width="4" stroke-linecap="round"/>
<path d="M73 21C73 16.5817 70.3137 13 67 13C63.6863 13 61 16.5817 61 21" stroke="currentColor" stroke-width="4" stroke-linecap="round"/>
</svg>