<svg width="100" height="40" viewBox="0 0 100 40" fill="none" xmlns="http://www.w3.org/2000/svg">
<circle cx="11" cy="20" r="2" fill="black"/>
<circle cx="90" cy="20" r="2" fill="black"/>
<path d="M45 21C45.5523 21 46 20.5523 46 20C46 19.4477 45.5523 19 45 19V20V21ZM53 19C52.4477 19 52 19.4477 52 20C52 20.5523 52.4477 21 53 21V20V19ZM12 20V21H45V20V19H12V20ZM53 20V21H90V20V19H53V20Z" fill="black"/>
<path d="M46 11V29.5" stroke="black" stroke-width="4" stroke-linecap="round"/>
<path d="M54 11V29.5" stroke="black" stroke-width="4" stroke-linecap="round"/>
</svg>
