<svg width="100" height="40" viewBox="0 0 100 40" fill="none" xmlns="http://www.w3.org/2000/svg">
<circle cx="11" cy="20" r="2" fill="black"/>
<circle cx="90" cy="20" r="2" fill="black"/>
<path d="M24.1622 21C24.7144 21 25.1622 20.5523 25.1622 20C25.1622 19.4477 24.7144 19 24.1622 19V20V21ZM72.8108 19C72.2585 19 71.8108 19.4477 71.8108 20C71.8108 20.5523 72.2585 21 72.8108 21V20V19ZM12 20V21L24.1622 21V20V19L12 19V20ZM72.8108 20V21L90.5 21V20V19L72.8108 19V20Z" fill="black"/>
<path d="M37 21C37 16.5817 34.3137 13 31 13C27.6863 13 25 16.5817 25 21" stroke="black" stroke-width="4" stroke-linecap="round"/>
<path d="M49 21C49 16.5817 46.3137 13 43 13C39.6863 13 37 16.5817 37 21" stroke="black" stroke-width="4" stroke-linecap="round"/>
<path d="M61 21C61 16.5817 58.3137 13 55 13C51.6863 13 49 16.5817 49 21" stroke="black" stroke-width="4" stroke-linecap="round"/>
<path d="M73 21C73 16.5817 70.3137 13 67 13C63.6863 13 61 16.5817 61 21" stroke="black" stroke-width="4" stroke-linecap="round"/>
</svg>
