<svg width="100" height="40" viewBox="0 0 100 40" fill="none" xmlns="http://www.w3.org/2000/svg">
<path d="M11 22C12.1046 22 13 21.1046 13 20C13 18.8954 12.1046 18 11 18C9.89543 18 9 18.8954 9 20C9 21.1046 9.89543 22 11 22Z" fill="black"/>
<path d="M90 22C91.1046 22 92 21.1046 92 20C92 18.8954 91.1046 18 90 18C88.8954 18 88 18.8954 88 20C88 21.1046 88.8954 22 90 22Z" fill="black"/>
<path d="M10 20H25" stroke="black" stroke-width="2"/>
<path d="M76 20H90.5" stroke="black" stroke-width="2"/>
<rect x="23" y="11" width="54" height="18" stroke="black" stroke-width="4" stroke-linejoin="round"/>
</svg>
